<?xml version="1.0" encoding="utf-8"?>
<svg viewBox="-12.9252 -19.9772 533.4443 533.4443" width="24" height="24" xmlns="http://www.w3.org/2000/svg">
  <path 
    fill="currentColor"
    d="M 253.391 -38.945 C 323.05 -38.945 323.05 36.917 314.925 98.713 L 192.761 98.713 C 185.782 36.917 185.782 -38.945 253.391 -38.945 Z M 345.309 155.237 C 345.309 167.153 323.993 166.717 323.993 166.717 L 323.993 411.707 C 323.156 428.497 312.738 449.306 301.442 467.214 L 301.442 508.291 C 300.694 513.861 280.587 531.769 274.33 532.435 L 233.264 532.435 C 227.008 531.769 206.902 513.861 206.153 508.291 L 206.153 467.215 C 194.858 449.307 184.438 428.497 183.602 411.707 L 183.602 166.717 C 183.602 166.717 162.285 167.153 162.285 155.237 C 162.285 120.459 162.285 109.856 184.024 108.358 L 323.571 108.358 C 345.309 109.856 345.309 120.459 345.309 155.237 Z M 217.883 411.707 C 217.046 421.916 226.606 438.065 238.079 455.427 L 240.436 501.905 L 267.158 501.905 L 269.516 455.427 C 280.988 438.065 290.547 421.916 289.711 411.707 L 289.711 166.717 L 217.883 166.717 L 217.883 411.707 Z" style="stroke: rgb(0, 0, 0); transform-origin: 253.797px 246.745px;"
    transform="matrix(0.707107007504, 0.707107007504, -0.707107007504, 0.707107007504, 0.000016182645, 0.000002341044)"
  />
</svg>